<svg xmlns="http://www.w3.org/2000/svg" version="1.1" xmlns:xlink="http://www.w3.org/1999/xlink" xmlns:svgjs="http://svgjs.dev/svgjs" viewBox="0 0 7.0271610848588715 7.578627543057722"><g transform="matrix(1,0,0,1,0.6080538090309986,5.890573734026724)"><rect width="7.578627543057722" height="7.578627543057722" x="-0.883787038130424" y="-5.890573734026724" fill="#262626"></rect><g><path d=" M 0.897 1.0709999999999997 L 0.897 0.5099999999999997 L 0.7185 0.9044999999999997 L 0.5625 0.9044999999999997 L 0.384 0.5099999999999997 L 0.384 1.0709999999999997 L 0.0915 1.0709999999999997 L 0.0915 0.005999999999999783 L 0.41100000000000003 0.005999999999999783 L 0.6405 0.5069999999999997 L 0.8715 0.005999999999999783 L 1.1895 0.005999999999999783 L 1.1895 1.0709999999999997 L 0.897 1.0709999999999997 M 1.867505859375 1.0799999999999996 Q 1.746005859375 1.0799999999999996 1.647005859375 1.0342499999999997 Q 1.5480058593750001 0.9884999999999997 1.476755859375 0.9112499999999997 Q 1.405505859375 0.8339999999999997 1.3672558593750002 0.7372499999999997 Q 1.329005859375 0.6404999999999997 1.329005859375 0.5369999999999997 Q 1.329005859375 0.43049999999999977 1.369505859375 0.3344999999999997 Q 1.4100058593750002 0.2384999999999997 1.482755859375 0.16274999999999973 Q 1.5555058593750002 0.08699999999999974 1.6552558593750002 0.04349999999999965 Q 1.7550058593750002 -2.220446049250313e-16 1.8735058593750002 -2.220446049250313e-16 Q 1.9950058593750002 -2.220446049250313e-16 2.094005859375 0.045749999999999735 Q 2.193005859375 0.09149999999999969 2.263505859375 0.16949999999999976 Q 2.334005859375 0.24749999999999972 2.372255859375 0.3442499999999997 Q 2.410505859375 0.4409999999999997 2.410505859375 0.5429999999999997 Q 2.410505859375 0.6479999999999997 2.3707558593750004 0.7439999999999998 Q 2.331005859375 0.8399999999999997 2.258255859375 0.9157499999999997 Q 2.185505859375 0.9914999999999997 2.0865058593750003 1.0357499999999997 Q 1.9875058593750001 1.0799999999999996 1.867505859375 1.0799999999999996 M 1.6260058593750002 0.5399999999999997 Q 1.6260058593750002 0.5939999999999996 1.641005859375 0.6442499999999998 Q 1.656005859375 0.6944999999999997 1.6860058593750002 0.7342499999999997 Q 1.716005859375 0.7739999999999998 1.761755859375 0.7972499999999998 Q 1.8075058593750002 0.8204999999999998 1.8705058593750001 0.8204999999999998 Q 1.9335058593750003 0.8204999999999998 1.9800058593750003 0.7964999999999998 Q 2.0265058593750003 0.7724999999999997 2.055755859375 0.7312499999999997 Q 2.0850058593750003 0.6899999999999997 2.099255859375 0.6397499999999997 Q 2.113505859375 0.5894999999999997 2.113505859375 0.5369999999999997 Q 2.113505859375 0.48299999999999976 2.098505859375 0.43349999999999966 Q 2.083505859375 0.3839999999999997 2.053505859375 0.3442499999999997 Q 2.023505859375 0.30449999999999966 1.9770058593750002 0.2819999999999997 Q 1.9305058593750002 0.25949999999999973 1.869005859375 0.25949999999999973 Q 1.8060058593750001 0.25949999999999973 1.7602558593750002 0.28349999999999975 Q 1.714505859375 0.30749999999999966 1.6845058593750002 0.3472499999999997 Q 1.6545058593750002 0.3869999999999997 1.640255859375 0.4372499999999997 Q 1.6260058593750002 0.4874999999999997 1.6260058593750002 0.5399999999999997 M 2.7135051269531254 0.005999999999999783 L 2.9220051269531253 0.7334999999999997 L 3.127505126953125 0.005999999999999783 L 3.435005126953125 0.005999999999999783 L 3.067505126953125 1.0709999999999997 L 2.776505126953125 1.0709999999999997 L 2.4045051269531252 0.005999999999999783 L 2.7135051269531254 0.005999999999999783 M 3.5310007324218753 1.0709999999999997 L 3.5310007324218753 0.005999999999999783 L 3.8235007324218753 0.005999999999999783 L 3.8235007324218753 1.0709999999999997 L 3.5310007324218753 1.0709999999999997 M 3.9705256347656257 0.8534999999999997 L 4.453525634765626 0.2609999999999997 L 3.9930256347656257 0.2609999999999997 L 3.9930256347656257 0.005999999999999783 L 4.806025634765626 0.005999999999999783 L 4.806025634765626 0.2234999999999997 L 4.3530256347656255 0.8159999999999997 L 4.815025634765625 0.8159999999999997 L 4.815025634765625 1.0709999999999997 L 3.9705256347656257 1.0709999999999997 L 3.9705256347656257 0.8534999999999997 M 4.91853955078125 0.8534999999999997 L 5.4015395507812505 0.2609999999999997 L 4.94103955078125 0.2609999999999997 L 4.94103955078125 0.005999999999999783 L 5.7540395507812505 0.005999999999999783 L 5.7540395507812505 0.2234999999999997 L 5.30103955078125 0.8159999999999997 L 5.76303955078125 0.8159999999999997 L 5.76303955078125 1.0709999999999997 L 4.91853955078125 1.0709999999999997 L 4.91853955078125 0.8534999999999997" fill="#ffffff" fill-rule="nonzero"></path></g><g></g><g clip-path="url(#SvgjsClipPath1002)"><g clip-path="url(#SvgjsClipPath10005e35f74b-5632-44f6-8b05-27e3bda6468b)"><path d=" M 4.6254910681642265 -4.486224297263652 L 1.1855623986326482 -4.486224297263652 L 1.1855623986326482 -1.0462956277320727 L 4.6254910681642265 -1.0462956277320727 Z M 1.1262541513165738 -4.545532544579726 L 1.1262541513165738 -0.9869873804159983 L 4.684799315480301 -0.9869873804159983 L 4.684799315480301 -4.545532544579726 Z" fill="#e8a941" transform="matrix(1,0,0,1,0,0)" fill-rule="evenodd"></path></g><g clip-path="url(#SvgjsClipPath10005e35f74b-5632-44f6-8b05-27e3bda6468b)"><path d=" M 2.905526733398437 -5.198652980445671 L 0.4731337154506283 -2.7662599624978625 L 2.905526733398437 -0.33386694455005284 L 5.337919751346247 -2.7662599624978625 Z M 0.3892667709005746 -2.7662599624978625 L 2.905526733398437 -0.25 L 5.4217866958963 -2.7662599624978625 L 2.905526733398437 -5.282519924995725 Z" fill="#e8a941" transform="matrix(1,0,0,1,0,0)" fill-rule="evenodd"></path></g><g clip-path="url(#SvgjsClipPath10005e35f74b-5632-44f6-8b05-27e3bda6468b)"><path d=" M 3.5350698134157774 -5.115767377280992 L 0.556019318615308 -3.395803042515203 L 2.275983653381097 -0.41675254771473336 L 5.255034148181567 -2.1367168824805223 Z M 0.4749957478228768 -3.4175183659915596 L 2.25426832990474 -0.33572897692230175 L 5.336057718973998 -2.1150015590041655 L 3.556785136892134 -5.1967909480734225 Z" fill="#e8a941" transform="matrix(1,0,0,1,0,0)" fill-rule="evenodd"></path></g><g clip-path="url(#SvgjsClipPath10005e35f74b-5632-44f6-8b05-27e3bda6468b)"><path d=" M 5.255034148181567 -3.395803042515203 L 2.275983653381097 -5.115767377280992 L 0.556019318615308 -2.1367168824805223 L 3.5350698134157774 -0.41675254771473336 Z M 2.25426832990474 -5.1967909480734225 L 0.4749957478228768 -2.1150015590041655 L 3.556785136892134 -0.33572897692230175 L 5.336057718973998 -3.4175183659915596 Z" fill="#e8a941" transform="matrix(1,0,0,1,0,0)" fill-rule="evenodd"></path></g><g clip-path="url(#SvgjsClipPath10005e35f74b-5632-44f6-8b05-27e3bda6468b)"><path d=" M 4.121710661072529 -4.872772152702574 L 0.7990145431937266 -3.9824438901719543 L 1.6893428057243454 -0.6597477722931515 L 5.012038923603148 -1.5500760348237703 Z M 0.7264456058752881 -4.024389943746794 L 1.6473967521495059 -0.5871788349747136 L 5.084607860921587 -1.5081299812489313 L 4.163656714647368 -4.945341090021012 Z" fill="#e8a941" transform="matrix(1,0,0,1,0,0)" fill-rule="evenodd"></path></g><g clip-path="url(#SvgjsClipPath10005e35f74b-5632-44f6-8b05-27e3bda6468b)"><path d=" M 5.012038923603148 -3.9824438901719543 L 1.6893428057243454 -4.872772152702574 L 0.7990145431937266 -1.5500760348237703 L 4.121710661072529 -0.6597477722931515 Z M 1.6473967521495059 -4.945341090021012 L 0.7264456058752881 -1.5081299812489313 L 4.163656714647368 -0.5871788349747136 L 5.084607860921587 -4.024389943746794 Z" fill="#e8a941" transform="matrix(1,0,0,1,0,0)" fill-rule="evenodd"></path></g><path d=" M 2.071397620023106 -3.7835073229039504 C 2.1000740072222865 -3.7835073229039504 2.130286629449995 -3.775826147761313 2.162035486706231 -3.7604637974760378 C 2.1937843439624665 -3.745101447190762 2.2178520260760646 -3.725130391819904 2.2342385330470247 -3.7005506313634635 L 2.980848756911408 -2.551446830024866 L 2.8272252540586544 -2.557591770138976 L 3.592270298265367 -3.7005506313634635 C 3.6311882523213983 -3.755855092390455 3.6813719299199645 -3.7835073229039504 3.742821331061066 -3.7835073229039504 C 3.791980851973947 -3.7835073229039504 3.8360195894584037 -3.766096659247305 3.8749375435144344 -3.731275331934014 C 3.913855497570465 -3.696454004620723 3.9333144745984807 -3.6513911104505823 3.9333144745984807 -3.596086649423591 L 3.9333144745984807 -1.8171264863887036 C 3.9333144745984807 -1.7638703387330819 3.915903810941835 -1.7193195229057832 3.8810824836285445 -1.6834740389068075 C 3.846261156315254 -1.6476285549078318 3.8001741054594276 -1.6297058129083437 3.742821331061066 -1.6297058129083437 C 3.6854685566627046 -1.6297058129083437 3.6388694274640363 -1.6476285549078318 3.60302394346506 -1.6834740389068075 C 3.5671784594660845 -1.7193195229057832 3.5492557174665964 -1.7638703387330819 3.5492557174665964 -1.8171264863887036 L 3.5492557174665964 -3.264259883261643 L 3.6690820496917445 -3.2366076527481473 L 3.0422981580525095 -2.2810694650040193 C 3.023863337710179 -2.2585380179189487 3.000819812282266 -2.2390790408909336 2.97316758176877 -2.2226925339199735 C 2.9455153512552745 -2.2063060269490125 2.9173510423989364 -2.1991369301492174 2.8886746551997557 -2.2011852435205874 C 2.862046581371945 -2.1991369301492174 2.8349064292012915 -2.2063060269490125 2.8072541986877964 -2.2226925339199735 C 2.7796019681743003 -2.2390790408909336 2.756558442746387 -2.2585380179189487 2.738123622404057 -2.2810694650040193 L 2.1512818415065382 -3.2089554222346517 L 2.2311660629899697 -3.3717963352585705 L 2.2311660629899697 -1.8171264863887036 C 2.2311660629899697 -1.7638703387330819 2.2147795560190096 -1.7193195229057832 2.1820065420770884 -1.6834740389068075 C 2.1492335281351678 -1.6476285549078318 2.106218947336397 -1.6297058129083437 2.0529627996807758 -1.6297058129083437 C 2.0017549653965245 -1.6297058129083437 1.9597645412834384 -1.6476285549078318 1.9269915273415177 -1.6834740389068075 C 1.8942185133995968 -1.7193195229057832 1.8778320064286365 -1.7638703387330819 1.8778320064286365 -1.8171264863887036 L 1.8778320064286365 -3.596086649423591 C 1.8778320064286365 -3.6472944837078423 1.8967789051138093 -3.6913332211922985 1.9346727024841552 -3.7282028618769587 C 1.9725664998545012 -3.76507250256162 2.0181414723674846 -3.7835073229039504 2.071397620023106 -3.7835073229039504" fill="#e8a941" transform="matrix(1,0,0,1,0,0)" fill-rule="nonzero"></path></g></g><defs><clipPath id="SvgjsClipPath1002"><path d=" M 0.3892667709005746 -5.282519924995725 h 5.032519924995725 v 5.032519924995725 h -5.032519924995725 Z"></path></clipPath><clipPath id="SvgjsClipPath10005e35f74b-5632-44f6-8b05-27e3bda6468b"><path d=" M 0.3892667709005746 -5.282519924995725 L 5.4217866958963 -5.282519924995725 L 5.4217866958963 -0.25 L 0.3892667709005746 -0.25 Z"></path></clipPath></defs></svg>