<svg xmlns="http://www.w3.org/2000/svg" version="1.1" xmlns:xlink="http://www.w3.org/1999/xlink" xmlns:svgjs="http://svgjs.dev/svgjs" viewBox="0 0 9.340659187113403 2.688103494244744"><g transform="matrix(1,0,0,1,2.7143745762098503,0.7965517471223722)"><g><path d=" M 0.897 1.0949999999999998 L 0.897 0.5339999999999997 L 0.7185 0.9284999999999998 L 0.5625 0.9284999999999998 L 0.384 0.5339999999999997 L 0.384 1.0949999999999998 L 0.0915 1.0949999999999998 L 0.0915 0.029999999999999805 L 0.41100000000000003 0.029999999999999805 L 0.6405 0.5309999999999997 L 0.8715 0.029999999999999805 L 1.1895 0.029999999999999805 L 1.1895 1.0949999999999998 L 0.897 1.0949999999999998 M 1.867505859375 1.1039999999999996 Q 1.746005859375 1.1039999999999996 1.647005859375 1.0582499999999997 Q 1.5480058593750001 1.0124999999999997 1.476755859375 0.9352499999999997 Q 1.405505859375 0.8579999999999998 1.3672558593750002 0.7612499999999998 Q 1.329005859375 0.6644999999999998 1.329005859375 0.5609999999999997 Q 1.329005859375 0.4544999999999998 1.369505859375 0.3584999999999997 Q 1.4100058593750002 0.26249999999999973 1.482755859375 0.18674999999999975 Q 1.5555058593750002 0.11099999999999977 1.6552558593750002 0.06749999999999967 Q 1.7550058593750002 0.0239999999999998 1.8735058593750002 0.0239999999999998 Q 1.9950058593750002 0.0239999999999998 2.094005859375 0.06974999999999976 Q 2.193005859375 0.11549999999999971 2.263505859375 0.19349999999999978 Q 2.334005859375 0.27149999999999974 2.372255859375 0.36824999999999974 Q 2.410505859375 0.46499999999999975 2.410505859375 0.5669999999999997 Q 2.410505859375 0.6719999999999997 2.3707558593750004 0.7679999999999998 Q 2.331005859375 0.8639999999999998 2.258255859375 0.9397499999999998 Q 2.185505859375 1.0154999999999998 2.0865058593750003 1.0597499999999997 Q 1.9875058593750001 1.1039999999999996 1.867505859375 1.1039999999999996 M 1.6260058593750002 0.5639999999999997 Q 1.6260058593750002 0.6179999999999997 1.641005859375 0.6682499999999998 Q 1.656005859375 0.7184999999999997 1.6860058593750002 0.7582499999999998 Q 1.716005859375 0.7979999999999998 1.761755859375 0.8212499999999998 Q 1.8075058593750002 0.8444999999999998 1.8705058593750001 0.8444999999999998 Q 1.9335058593750003 0.8444999999999998 1.9800058593750003 0.8204999999999998 Q 2.0265058593750003 0.7964999999999998 2.055755859375 0.7552499999999998 Q 2.0850058593750003 0.7139999999999997 2.099255859375 0.6637499999999997 Q 2.113505859375 0.6134999999999997 2.113505859375 0.5609999999999997 Q 2.113505859375 0.5069999999999998 2.098505859375 0.4574999999999997 Q 2.083505859375 0.4079999999999997 2.053505859375 0.36824999999999974 Q 2.023505859375 0.3284999999999997 1.9770058593750002 0.3059999999999997 Q 1.9305058593750002 0.28349999999999975 1.869005859375 0.28349999999999975 Q 1.8060058593750001 0.28349999999999975 1.7602558593750002 0.3074999999999998 Q 1.714505859375 0.3314999999999997 1.6845058593750002 0.37124999999999975 Q 1.6545058593750002 0.4109999999999997 1.640255859375 0.4612499999999997 Q 1.6260058593750002 0.5114999999999997 1.6260058593750002 0.5639999999999997 M 2.7135051269531254 0.029999999999999805 L 2.9220051269531253 0.7574999999999997 L 3.127505126953125 0.029999999999999805 L 3.435005126953125 0.029999999999999805 L 3.067505126953125 1.0949999999999998 L 2.776505126953125 1.0949999999999998 L 2.4045051269531252 0.029999999999999805 L 2.7135051269531254 0.029999999999999805 M 3.5310007324218753 1.0949999999999998 L 3.5310007324218753 0.029999999999999805 L 3.8235007324218753 0.029999999999999805 L 3.8235007324218753 1.0949999999999998 L 3.5310007324218753 1.0949999999999998 M 3.9705256347656257 0.8774999999999997 L 4.453525634765626 0.2849999999999997 L 3.9930256347656257 0.2849999999999997 L 3.9930256347656257 0.029999999999999805 L 4.806025634765626 0.029999999999999805 L 4.806025634765626 0.24749999999999972 L 4.3530256347656255 0.8399999999999997 L 4.815025634765625 0.8399999999999997 L 4.815025634765625 1.0949999999999998 L 3.9705256347656257 1.0949999999999998 L 3.9705256347656257 0.8774999999999997 M 4.9575395507812505 0.35099999999999976 L 4.9575395507812505 -2.220446049250313e-16 L 5.19753955078125 -2.220446049250313e-16 L 5.19753955078125 0.35099999999999976 L 4.9575395507812505 0.35099999999999976 M 5.3325263671875 0.8774999999999997 L 5.8155263671875 0.2849999999999997 L 5.3550263671875 0.2849999999999997 L 5.3550263671875 0.029999999999999805 L 6.1680263671875 0.029999999999999805 L 6.1680263671875 0.24749999999999972 L 5.7150263671875 0.8399999999999997 L 6.1770263671875 0.8399999999999997 L 6.1770263671875 1.0949999999999998 L 5.3325263671875 1.0949999999999998 L 5.3325263671875 0.8774999999999997" fill="#ff6b00" fill-rule="nonzero"></path></g><g></g><g clip-path="url(#SvgjsClipPath1001)"><g clip-path="url(#SvgjsClipPath100024557128-a679-493b-8ec1-06d4bb83931a)"><path d=" M -1.2932392181862415 -0.3953074194219448 L -0.40000000000000013 0.009330958012366164 L -0.40000000000000013 1.0856690419876336 L -1.2932392181862415 1.4903074194219446 L -1.2932392181862415 0.3510480677556418 L -1.0799947932783598 0.4477566399624421 L -1.0799947932783598 0.9258368829010806 L -0.8262865306270468 0.8107172645210192 L -0.8262865306270468 0.28408041629026337 L -1.2932392181862415 0.07265686408083594 L -1.2932392181862415 -0.3953074194219448 Z" fill="#e8ae40" transform="matrix(1,0,0,1,0,0)" fill-rule="evenodd"></path></g><g clip-path="url(#SvgjsClipPath100024557128-a679-493b-8ec1-06d4bb83931a)"><path d=" M -1.4200933495118981 1.4903074194219446 L -2.3131302485094225 1.0856690419876336 L -2.3131302485094225 0.009330958012366164 L -1.4200933495118981 -0.3953074194219448 L -1.4200933495118981 0.7437496130556407 L -1.6331354552310628 0.6472433600375573 L -1.6331354552310628 0.16916311709891907 L -1.8868437178823758 0.28408041629026337 L -1.8868437178823758 0.8107172645210192 L -1.4200933495118981 1.0223431359191637 L -1.4200933495118981 1.4903074194219446 Z" fill="#f46036" transform="matrix(1,0,0,1,0,0)" fill-rule="evenodd"></path></g></g></g><defs><clipPath id="SvgjsClipPath1001"><path d=" M -2.3131302485094225 -0.3953074194219448 h 1.9131302485094224 v 1.8856148388438894 h -1.9131302485094224 Z"></path></clipPath><clipPath id="SvgjsClipPath100024557128-a679-493b-8ec1-06d4bb83931a"><path d=" M -2.3131302485094225 -0.3953074194219448 L -0.40000000000000013 -0.3953074194219448 L -0.40000000000000013 1.4903074194219446 L -2.3131302485094225 1.4903074194219446 Z"></path></clipPath></defs></svg>